<?xml version="1.0" encoding="utf-8"?>
<!-- Generator: Adobe Illustrator 19.0.0, SVG Export Plug-In . SVG Version: 6.00 Build 0)  -->
<svg version="1.1" id="logo" xmlns="http://www.w3.org/2000/svg" xmlns:xlink="http://www.w3.org/1999/xlink" x="0px" y="0px"
	 viewBox="-180 371 250 52" style="enable-background:new -180 371 250 52;" xml:space="preserve">
<style type="text/css">
	.st0{fill:#FFFFFF;}
</style>
<path class="st0" d="M70,415.1v7.9H38.1v-42.9H70v7.9H46.8v9.8h20.6v7.9H46.8v9.2H70z M-6,396.1V423h-8.7v-42.9h6.4l23.7,27.7v-27.7
	h8.7V423h-6.7C17.4,423-6,396.1-6,396.1z M-37.3,380.1h8.7V423h-8.7V380.1z M-66.3,411H-73v12h-8.7v-42.9H-65c10.4,0,17.3,6,17.3,15
	C-47.7,404.7-55.1,411-66.3,411z M-65.3,388H-73v15.1h7.7c5.4,0,9-3.2,9-8C-56.3,390.9-59.9,388-65.3,388z M-123.7,380.1h8.7v34.9
	h22.4v7.9h-31V380.1z M-147.2,414.4h-19.9l-3.6,8.6h-9.3l22.8-52l4.1,9.1l18.7,42.9h-9.2L-147.2,414.4z M-157.2,390.4l-6.8,16.4
	h13.6L-157.2,390.4z"/>
</svg>
