<?xml version="1.0" encoding="utf-8"?>
<!-- Generator: Adobe Illustrator 19.0.0, SVG Export Plug-In . SVG Version: 6.00 Build 0)  -->
<svg version="1.1" id="logo-footer" xmlns="http://www.w3.org/2000/svg" xmlns:xlink="http://www.w3.org/1999/xlink" x="0px"
	 y="0px" viewBox="1094 104 2800 586" style="enable-background:new 1094 104 2800 586;" xml:space="preserve">
<style type="text/css">
	.st0{fill:#12222C;}
</style>
<path class="st0" d="M3894,600.5V690h-356.8V207.1H3894v89.5h-259.8v110.8h231.2v89.5h-231.2v103.7H3894z M3042.7,386.8V690h-97
	V207.1h72.1l265.5,311.7V207.1h97.1V690h-74.9L3042.7,386.8L3042.7,386.8z M2691.6,207.1h97.1V690h-97.1V207.1z M2367.7,555.1h-75.6
	V690h-97V207.1h187c116.3,0,193.4,67.5,193.4,169C2575.4,484.1,2492.6,555.1,2367.7,555.1z M2378.4,295.9h-86.3v170.4h86.3
	c60.7,0,101.3-36.2,101.3-90.2C2479.7,328.6,2439.1,295.9,2378.4,295.9z M1724.8,207.1h97.1v393.4h250.5V690h-347.5V207.1z
	 M1461.5,593.4h-223.4l-40,96.6H1094l255.5-586l45.7,103.1L1604.9,690h-103.5L1461.5,593.4z M1349.5,322.9l-76.3,184.6h152.7
	L1349.5,322.9z"/>
</svg>
